<?xml version="1.0" encoding="UTF-8" standalone="no"?>
<!-- Created with Inkscape (http://www.inkscape.org/) -->

<svg
   width="60mm"
   height="32mm"
   viewBox="0 0 60 32"
   version="1.1"
   id="svg5"
   xml:space="preserve"
   inkscape:version="1.2.1 (9c6d41e410, 2022-07-14)"
   sodipodi:docname="logo_TI_Hifa.svg"
   xmlns:inkscape="http://www.inkscape.org/namespaces/inkscape"
   xmlns:sodipodi="http://sodipodi.sourceforge.net/DTD/sodipodi-0.dtd"
   xmlns="http://www.w3.org/2000/svg"
   xmlns:svg="http://www.w3.org/2000/svg"><sodipodi:namedview
     id="namedview7"
     pagecolor="#ffffff"
     bordercolor="#000000"
     borderopacity="0.25"
     inkscape:showpageshadow="2"
     inkscape:pageopacity="0.0"
     inkscape:pagecheckerboard="0"
     inkscape:deskcolor="#d1d1d1"
     inkscape:document-units="mm"
     showgrid="false"
     inkscape:zoom="1.0289025"
     inkscape:cx="300.32"
     inkscape:cy="251.72453"
     inkscape:window-width="1366"
     inkscape:window-height="697"
     inkscape:window-x="-8"
     inkscape:window-y="-8"
     inkscape:window-maximized="1"
     inkscape:current-layer="layer1" /><defs
     id="defs2" /><g
     inkscape:label="Camada 1"
     inkscape:groupmode="layer"
     id="layer1"><rect
       style="fill:#2d83ba;fill-opacity:1;stroke-width:0.0790555"
       id="rect452-3-8"
       width="2.5247416"
       height="12.020143"
       x="13.890038"
       y="7.1833248" /><path
       style="fill:#a5d7d5;fill-opacity:1;stroke:none;stroke-width:0.0794326"
       d="m 19.215572,7.0236808 -0.07943,11.9943362 h 2.621263 l 0.07943,-3.415607 c 0,0 4.374231,0.07951 4.607072,0.07951 v 3.415607 h 2.621277 L 29.144614,7.0237578 H 26.523335 L 26.443905,13.06064 H 21.836837 V 7.0237598 h -2.621265 m 12.153165,0 V 19.097529 h 2.621285 L 34.069455,7.1031925 31.368741,7.0236808 M 36.293574,19.09745 h 2.700713 v -3.336174 h 3.971638 c 0,-0.572327 -0.002,-2.493963 -0.002,-2.493963 0.150894,-0.09273 -2.638215,-0.127258 -3.969418,-0.127258 0,-0.843251 -0.223205,-2.055321 0.302081,-2.776963 C 39.7542,9.7344566 40.44741,9.8038862 41.139191,9.8038862 h 4.368801 V 7.1031728 h -4.845397 c -0.992989,0 -1.989075,-0.08622 -2.859498,0.4846068 -1.42614,0.9353374 -1.429869,2.3589909 -1.429869,3.8841944 0,2.54486 -0.07943,5.085266 -0.07943,7.625535 m 11.438314,0.07951 h 2.700714 v -3.415607 l 4.607097,0.07951 c 0.113487,0.06392 0.08166,3.288272 0.08166,3.288272 l 2.571159,-0.05682 c 0,0 0.0479,-1.853786 0.0479,-2.516575 v -4.84539 c 0,-0.899507 0.117236,-1.8596849 -0.263161,-2.7007131 -0.320352,-0.7081471 -0.855887,-1.2446437 -1.563794,-1.5637953 -0.772563,-0.3482335 -1.637269,-0.263158 -2.462413,-0.263158 -1.816786,0 -4.075139,-0.3980516 -5.182115,1.4297895 -0.656989,1.0848115 -0.45761,2.4408899 -0.45761,3.6539069 0,2.306561 -0.07943,4.602394 -0.07943,6.91064 m 7.387125,-5.957454 h -4.686532 c 0,-0.84771 -0.244178,-2.135622 0.289851,-2.856159 0.672479,-0.9072815 3.532295,-0.8454874 4.147818,0.07912 0.479538,0.720439 0.248863,1.948569 0.248863,2.776963"
       id="path302"
       sodipodi:nodetypes="cccccccccccccccccccccccccsccscscccccccssccssscccccc" /><rect
       style="fill:#bcd46c;fill-opacity:1;stroke-width:0.0362327"
       id="rect452-3"
       width="2.5248358"
       height="2.5248358"
       x="13.890038"
       y="2.9800887" /><rect
       style="fill:#2d83ba;fill-opacity:1;stroke-width:0.0790555"
       id="rect452-2-0"
       width="2.5247416"
       height="12.020143"
       x="5.1886687"
       y="7.1833248" /><rect
       style="fill:#2d83ba;fill-opacity:1;stroke-width:0.0721702"
       id="rect452-2-2-0"
       width="2.5247416"
       height="10.017523"
       x="7.1833248"
       y="-11.459793"
       transform="rotate(90)" /></g></svg>
